<svg width="600" height="400" viewBox="0 0 600 400" fill="none" xmlns="http://www.w3.org/2000/svg">
<path d="M0 400V200V0H600V400H0Z" fill="url(#paint0_linear_63_315)"/>
<path d="M262.127 84.2979C263.627 83.3979 266.327 82.2579 268.127 81.7779C270.467 81.1179 273.048 80.8779 276.827 81.0579C281.388 81.2979 282.827 81.6579 286.128 83.2779C288.528 84.4779 291.527 86.6979 293.987 89.1579C296.987 92.1579 298.248 94.0179 299.328 96.7179C300.048 98.6979 300.827 101.818 301.067 103.618C301.308 105.418 301.247 109.078 301.007 111.718C300.647 115.078 299.928 117.718 298.548 120.658C297.287 123.418 295.607 125.698 293.507 127.678C291.767 129.298 288.527 131.518 286.307 132.538C282.407 134.398 275.327 134.518 275.327 134.518C275.327 134.518 268.188 134.398 264.527 132.598C261.887 131.338 259.427 129.478 256.907 126.778C254.807 124.618 252.587 121.798 251.987 120.538C251.387 119.338 250.427 116.698 249.887 114.718C249.347 112.738 248.927 109.498 248.927 107.518C248.927 105.478 249.467 102.118 250.187 99.7179C250.907 97.4379 252.107 94.4979 252.887 93.2379C253.667 92.0379 255.467 89.8779 256.847 88.4379C258.287 87.0579 260.627 85.1979 262.127 84.2979Z" fill="#F4F7F7"/>
<path d="M343.068 95.2779C343.607 94.4379 344.868 93.2979 345.827 92.6979C346.788 92.0979 348.528 91.6179 349.608 91.6179C350.628 91.6179 352.367 92.0379 353.327 92.5179C354.287 92.9979 355.787 94.3179 356.628 95.3979C357.467 96.4179 358.307 98.2779 358.488 99.4179C358.727 100.798 358.427 103.018 357.527 106.018C356.807 108.478 354.828 113.218 353.208 116.518C351.528 119.818 348.887 124.438 347.268 126.718C345.648 128.998 342.647 132.778 340.607 135.058C338.507 137.338 334.668 140.878 332.028 142.918C329.388 144.958 325.607 147.598 323.628 148.798C321.648 149.938 318.288 151.738 316.128 152.698C313.968 153.718 309.948 155.098 307.128 155.818C304.308 156.538 301.248 157.318 298.428 157.978L298.128 187.018H317.207C327.647 187.018 337.848 187.318 339.827 187.618C341.808 187.978 344.928 188.938 346.728 189.778C348.528 190.618 351.348 192.298 352.908 193.498C354.528 194.698 356.747 196.918 357.887 198.418C359.027 199.918 360.527 202.558 361.128 204.298C361.787 205.978 362.628 209.398 362.988 211.798C363.467 215.278 363.467 217.018 362.688 220.618C361.967 224.218 359.808 229.018 352.008 244.618C345.828 256.978 341.448 264.958 340.128 266.338C338.268 268.318 337.668 268.558 335.028 268.618C332.628 268.618 331.548 268.318 329.507 266.818C328.007 265.798 326.508 264.058 325.967 262.798C325.307 261.238 325.128 259.678 325.368 257.818C325.607 256.018 327.467 252.018 330.948 245.818C333.827 240.718 338.088 232.498 340.548 227.518C344.508 219.358 344.928 218.158 344.928 214.918C344.928 212.518 344.548 210.618 343.788 209.218C343.188 208.078 341.747 206.638 340.667 206.038C338.807 205.138 336.348 205.018 314.628 205.018C297.288 205.018 289.968 204.778 288.228 204.238C286.968 203.878 284.988 202.738 283.967 201.718C282.827 200.638 281.748 198.778 281.327 197.218C280.788 195.298 280.667 190.258 280.787 179.998C280.907 171.958 280.967 165.418 280.907 165.418C280.787 165.418 279.587 167.098 278.207 169.138C276.827 171.238 275.207 173.998 274.607 175.318C273.707 177.358 273.528 179.458 273.528 189.118C273.528 198.898 273.647 201.058 274.728 204.418C275.388 206.578 276.948 209.638 278.147 211.258C279.408 212.938 281.567 215.158 283.007 216.238C284.387 217.318 286.667 218.518 288.107 218.938C289.487 219.298 292.368 219.598 294.528 219.598C296.868 219.538 299.748 218.998 301.728 218.278C303.528 217.618 306.408 215.938 308.028 214.618C309.768 213.178 311.928 212.038 313.128 211.858C314.268 211.678 314.867 212.398 314.927 212.518C314.987 212.638 315.888 213.538 316.428 215.518C316.968 217.498 318.108 220.678 320.628 226.138L319.128 227.278C318.288 227.878 314.928 229.738 311.628 231.418C308.328 233.038 303.888 234.778 301.728 235.318C299.568 235.798 295.788 236.218 293.328 236.218C290.868 236.218 287.208 235.798 285.228 235.258C283.248 234.718 280.128 233.518 278.327 232.618C276.528 231.718 273.587 229.738 271.787 228.358C269.987 226.918 267.408 224.098 266.027 222.118C264.587 220.138 262.787 217.138 262.007 215.518C261.167 213.838 259.908 210.778 259.247 208.618C258.588 206.458 257.687 202.738 257.387 200.338C257.027 197.998 256.727 192.838 256.727 188.998C256.727 185.098 257.147 179.638 257.627 176.818C258.107 173.998 259.067 169.678 259.787 167.218C260.447 164.758 261.947 160.978 263.027 158.818C264.167 156.658 266.507 153.298 268.308 151.318C270.048 149.338 272.868 146.818 274.487 145.798C276.107 144.718 278.808 143.338 280.428 142.678C282.108 142.018 287.927 140.698 293.507 139.678C299.027 138.658 305.507 137.158 307.907 136.318C310.247 135.478 313.968 133.798 316.128 132.598C318.528 131.278 322.128 128.338 325.488 124.978C328.908 121.558 332.087 117.598 334.068 114.418C335.747 111.598 338.268 106.498 339.648 103.018C340.967 99.5379 342.527 96.0579 343.068 95.2779Z" fill="#F4F7F7"/>
<path d="M224.627 143.218C227.267 140.998 230.627 138.358 232.067 137.338C233.567 136.258 234.887 135.418 235.067 135.418C235.247 135.418 234.347 136.438 233.087 137.638C231.767 138.898 229.547 141.538 228.047 143.518C226.607 145.498 224.267 149.398 222.827 152.218C221.387 155.038 219.287 160.018 218.147 163.318C217.007 166.618 215.207 172.678 214.187 176.818C213.227 180.958 211.847 187.438 211.187 191.218C210.527 194.998 209.807 200.698 209.627 203.818C209.387 206.938 209.507 213.058 209.867 217.318C210.227 221.578 211.187 227.878 212.027 231.238C212.867 234.658 214.487 240.058 215.687 243.238C216.887 246.478 218.867 250.978 220.067 253.318C221.267 255.598 223.967 260.098 226.067 263.218C228.167 266.338 231.467 270.778 233.327 273.118C235.247 275.458 237.827 278.278 239.027 279.418C240.227 280.558 241.607 282.238 242.087 283.138C242.567 284.098 242.927 285.478 242.927 286.318C242.927 287.158 242.567 288.718 242.087 289.738C241.547 290.998 240.347 292.138 238.907 292.858C237.287 293.638 235.967 293.878 234.227 293.578C232.907 293.398 231.047 292.618 230.028 291.838C229.007 291.058 225.587 287.338 222.287 283.558C219.047 279.778 214.787 274.258 212.807 271.318C210.827 268.378 207.647 262.678 205.727 258.718C203.807 254.758 201.527 249.358 200.627 246.718C199.787 244.078 198.407 239.218 197.627 235.918C196.847 232.618 195.887 227.218 195.467 223.918C195.047 220.198 194.867 214.258 195.107 208.318C195.287 203.038 195.887 196.258 196.427 193.318C196.967 190.378 198.107 185.638 198.887 182.818C199.727 179.998 201.827 174.778 203.567 171.118C205.307 167.458 207.887 162.778 209.327 160.618C210.767 158.458 213.707 154.558 215.867 151.978C218.027 149.338 221.987 145.438 224.627 143.218Z" fill="#F4F7F7"/>
<path d="M354.227 144.118C354.707 142.978 356.027 141.478 357.048 140.818C358.128 140.158 359.628 139.618 360.348 139.618C361.128 139.618 362.387 139.858 363.227 140.218C364.067 140.578 368.688 144.598 373.548 149.278C378.467 153.898 382.908 158.398 383.448 159.298C384.048 160.198 384.527 162.058 384.527 163.438C384.527 164.878 384.107 166.798 383.628 167.818C383.147 168.838 381.827 170.158 380.747 170.818C379.728 171.478 377.808 172.018 376.548 172.018C374.508 172.018 373.607 171.358 364.848 162.958C359.688 158.038 354.948 153.118 354.348 152.038C353.808 150.958 353.327 149.218 353.327 148.138C353.327 147.118 353.747 145.258 354.227 144.118Z" fill="#F4F7F7"/>
<path d="M388.248 179.398C389.028 178.678 390.287 177.838 391.128 177.478C391.967 177.118 393.467 176.998 394.428 177.118C395.387 177.298 396.887 177.898 397.727 178.498C398.568 179.098 399.708 180.538 400.248 181.678C400.848 182.818 401.867 186.298 402.527 189.418C403.188 192.538 404.027 197.818 404.387 201.118C404.807 204.718 404.928 210.898 404.748 216.718C404.508 222.958 403.967 228.418 403.128 232.318C402.467 235.618 400.908 241.258 399.708 244.918C398.508 248.578 396.468 253.798 395.208 256.618C393.888 259.438 391.488 263.998 389.808 266.818C388.068 269.638 384.887 274.378 382.727 277.318C380.507 280.258 377.268 284.278 375.468 286.258C373.668 288.178 370.188 291.418 367.727 293.398C365.268 295.378 360.527 298.738 357.227 300.898C353.927 303.058 347.988 306.418 344.028 308.278C340.068 310.138 334.668 312.358 332.028 313.258C329.388 314.098 324.408 315.478 320.928 316.258C317.448 317.098 311.928 318.058 308.628 318.478C305.328 318.838 300.888 319.018 298.728 318.838C296.568 318.658 293.748 318.178 292.428 317.758C290.928 317.338 288.648 315.718 286.428 313.618C284.088 311.398 280.848 309.178 277.128 307.318C272.568 304.978 270.467 303.418 266.627 299.578C263.927 296.878 260.387 292.618 258.647 290.038C256.908 287.518 255.347 284.938 255.107 284.338C254.868 283.798 256.547 284.998 258.887 287.098C261.167 289.198 264.527 291.898 266.327 293.098C268.127 294.298 271.788 296.278 274.428 297.478C277.068 298.738 280.848 300.178 282.827 300.658C284.808 301.198 288.708 301.918 291.528 302.278C294.408 302.698 299.508 302.818 303.228 302.638C306.888 302.458 312.528 301.738 315.828 301.078C319.128 300.418 325.008 298.798 328.848 297.418C332.747 296.098 337.908 294.058 340.247 292.858C342.648 291.658 346.787 289.318 349.427 287.698C352.067 286.018 356.508 282.778 359.268 280.378C362.028 278.038 365.508 274.738 367.008 273.118C368.508 271.438 371.328 267.958 373.308 265.318C375.288 262.678 378.408 257.278 380.327 253.318C382.247 249.358 384.468 243.958 385.368 241.318C386.208 238.678 387.288 234.778 387.768 232.618C388.248 230.458 388.967 226.018 389.387 222.718C389.807 219.118 389.988 213.478 389.748 208.618C389.568 203.518 388.848 197.518 387.827 192.418C386.988 187.978 386.388 183.538 386.568 182.518C386.748 181.498 387.528 180.118 388.248 179.398Z" fill="#F4F7F7"/>
<path d="M229.787 218.878C230.267 217.738 231.407 216.298 232.427 215.698C233.387 215.098 235.307 214.618 236.627 214.618C238.127 214.618 239.747 215.098 241.067 215.938C242.747 217.078 243.407 218.158 244.727 222.118C245.567 224.758 247.187 228.658 248.267 230.818C249.347 232.978 251.627 236.578 253.367 238.858C255.047 241.138 258.167 244.618 260.327 246.538C262.487 248.458 266.267 251.098 268.728 252.418C271.188 253.678 275.388 255.298 278.028 256.018C281.147 256.798 284.748 257.218 288.228 257.218C291.648 257.218 295.368 256.798 298.428 256.018C301.068 255.358 305.448 253.738 308.147 252.418C310.908 251.098 313.248 250.018 313.428 250.018C313.608 250.018 313.607 250.618 313.487 251.338C313.307 252.118 312.588 256.078 311.868 260.218C311.147 264.358 310.247 268.018 309.887 268.378C309.527 268.798 307.608 269.638 305.628 270.298C303.648 270.958 299.748 271.918 296.928 272.458C294.108 272.998 290.147 273.418 288.048 273.418C286.007 273.418 282.228 273.118 279.647 272.758C277.128 272.398 272.567 271.318 269.627 270.358C266.627 269.338 262.487 267.538 260.327 266.278C258.167 265.018 254.387 262.378 251.927 260.398C249.467 258.418 245.687 254.758 243.527 252.178C241.367 249.658 238.188 245.278 236.447 242.338C234.708 239.458 232.487 234.958 231.467 232.318C230.447 229.678 229.487 226.018 229.247 224.218C229.047 222.018 229.227 220.238 229.787 218.878Z" fill="#F4F7F7"/>
<defs>
<linearGradient id="paint0_linear_63_315" x1="0" y1="0" x2="369.231" y2="553.846" gradientUnits="userSpaceOnUse">
<stop stop-color="#00BD85"/>
<stop offset="0.502569" stop-color="#00927A"/>
<stop offset="1" stop-color="#00676D"/>
</linearGradient>
</defs>
</svg>
