<svg width="500" height="500" viewBox="0 0 500 500" fill="none" xmlns="http://www.w3.org/2000/svg">
<path d="M0 500V250V0H500V500H0Z" fill="url(#paint0_linear_63_318)"/>
<path d="M212.127 134.298C213.627 133.398 216.327 132.258 218.127 131.778C220.467 131.118 223.048 130.878 226.827 131.058C231.388 131.298 232.827 131.658 236.128 133.278C238.528 134.478 241.527 136.698 243.987 139.158C246.987 142.158 248.248 144.018 249.328 146.718C250.048 148.698 250.827 151.818 251.067 153.618C251.308 155.418 251.247 159.078 251.007 161.718C250.647 165.078 249.928 167.718 248.548 170.658C247.287 173.418 245.607 175.698 243.507 177.678C241.767 179.298 238.527 181.518 236.307 182.538C232.407 184.398 225.327 184.518 225.327 184.518C225.327 184.518 218.188 184.398 214.527 182.598C211.887 181.338 209.427 179.478 206.907 176.778C204.807 174.618 202.587 171.798 201.987 170.538C201.387 169.338 200.427 166.698 199.887 164.718C199.347 162.738 198.927 159.498 198.927 157.518C198.927 155.478 199.467 152.118 200.187 149.718C200.907 147.438 202.107 144.498 202.887 143.238C203.667 142.038 205.467 139.878 206.847 138.438C208.287 137.058 210.627 135.198 212.127 134.298Z" fill="#F4F7F7"/>
<path d="M293.068 145.278C293.607 144.438 294.868 143.298 295.827 142.698C296.788 142.098 298.528 141.618 299.608 141.618C300.628 141.618 302.367 142.038 303.327 142.518C304.287 142.998 305.787 144.318 306.628 145.398C307.467 146.418 308.307 148.278 308.488 149.418C308.727 150.798 308.427 153.018 307.527 156.018C306.807 158.478 304.828 163.218 303.208 166.518C301.528 169.818 298.887 174.438 297.268 176.718C295.648 178.998 292.647 182.778 290.607 185.058C288.507 187.338 284.668 190.878 282.028 192.918C279.388 194.958 275.607 197.598 273.628 198.798C271.648 199.938 268.288 201.738 266.128 202.698C263.968 203.718 259.948 205.098 257.128 205.818C254.308 206.538 251.248 207.318 248.428 207.978L248.128 237.018H267.207C277.647 237.018 287.848 237.318 289.827 237.618C291.808 237.978 294.928 238.938 296.728 239.778C298.528 240.618 301.348 242.298 302.908 243.498C304.528 244.698 306.747 246.918 307.887 248.418C309.027 249.918 310.527 252.558 311.128 254.298C311.787 255.978 312.628 259.398 312.988 261.798C313.467 265.278 313.467 267.018 312.688 270.618C311.967 274.218 309.808 279.018 302.008 294.618C295.828 306.978 291.448 314.958 290.128 316.338C288.268 318.318 287.668 318.558 285.028 318.618C282.628 318.618 281.548 318.318 279.507 316.818C278.007 315.798 276.508 314.058 275.967 312.798C275.307 311.238 275.128 309.678 275.368 307.818C275.607 306.018 277.467 302.018 280.948 295.818C283.827 290.718 288.088 282.498 290.548 277.518C294.508 269.358 294.928 268.158 294.928 264.918C294.928 262.518 294.548 260.618 293.788 259.218C293.188 258.078 291.747 256.638 290.667 256.038C288.807 255.138 286.348 255.018 264.628 255.018C247.288 255.018 239.968 254.778 238.228 254.238C236.968 253.878 234.988 252.738 233.967 251.718C232.827 250.638 231.748 248.778 231.327 247.218C230.788 245.298 230.667 240.258 230.787 229.998C230.907 221.958 230.967 215.418 230.907 215.418C230.787 215.418 229.587 217.098 228.207 219.138C226.827 221.238 225.207 223.998 224.607 225.318C223.707 227.358 223.528 229.458 223.528 239.118C223.528 248.898 223.647 251.058 224.728 254.418C225.388 256.578 226.948 259.638 228.147 261.258C229.408 262.938 231.567 265.158 233.007 266.238C234.387 267.318 236.667 268.518 238.107 268.938C239.487 269.298 242.368 269.598 244.528 269.598C246.868 269.538 249.748 268.998 251.728 268.278C253.528 267.618 256.408 265.938 258.028 264.618C259.768 263.178 261.928 262.038 263.128 261.858C264.268 261.678 264.867 262.398 264.927 262.518C264.987 262.638 265.888 263.538 266.428 265.518C266.968 267.498 268.108 270.678 270.628 276.138L269.128 277.278C268.288 277.878 264.928 279.738 261.628 281.418C258.328 283.038 253.888 284.778 251.728 285.318C249.568 285.798 245.788 286.218 243.328 286.218C240.868 286.218 237.208 285.798 235.228 285.258C233.248 284.718 230.128 283.518 228.327 282.618C226.528 281.718 223.587 279.738 221.787 278.358C219.987 276.918 217.408 274.098 216.027 272.118C214.587 270.138 212.787 267.138 212.007 265.518C211.167 263.838 209.908 260.778 209.247 258.618C208.588 256.458 207.687 252.738 207.387 250.338C207.027 247.998 206.727 242.838 206.727 238.998C206.727 235.098 207.147 229.638 207.627 226.818C208.107 223.998 209.067 219.678 209.787 217.218C210.447 214.758 211.947 210.978 213.027 208.818C214.167 206.658 216.507 203.298 218.308 201.318C220.048 199.338 222.868 196.818 224.487 195.798C226.107 194.718 228.808 193.338 230.428 192.678C232.108 192.018 237.927 190.698 243.507 189.678C249.027 188.658 255.507 187.158 257.907 186.318C260.247 185.478 263.968 183.798 266.128 182.598C268.528 181.278 272.128 178.338 275.488 174.978C278.908 171.558 282.087 167.598 284.068 164.418C285.747 161.598 288.268 156.498 289.648 153.018C290.967 149.538 292.527 146.058 293.068 145.278Z" fill="#F4F7F7"/>
<path d="M174.627 193.218C177.267 190.998 180.627 188.358 182.067 187.338C183.567 186.258 184.887 185.418 185.067 185.418C185.247 185.418 184.347 186.438 183.087 187.638C181.767 188.898 179.547 191.538 178.047 193.518C176.607 195.498 174.267 199.398 172.827 202.218C171.387 205.038 169.287 210.018 168.147 213.318C167.007 216.618 165.207 222.678 164.187 226.818C163.227 230.958 161.847 237.438 161.187 241.218C160.527 244.998 159.807 250.698 159.627 253.818C159.387 256.938 159.507 263.058 159.867 267.318C160.227 271.578 161.187 277.878 162.027 281.238C162.867 284.658 164.487 290.058 165.687 293.238C166.887 296.478 168.867 300.978 170.067 303.318C171.267 305.598 173.967 310.098 176.067 313.218C178.167 316.338 181.467 320.778 183.327 323.118C185.247 325.458 187.827 328.278 189.027 329.418C190.227 330.558 191.607 332.238 192.087 333.138C192.567 334.098 192.927 335.478 192.927 336.318C192.927 337.158 192.567 338.718 192.087 339.738C191.547 340.998 190.347 342.138 188.907 342.858C187.287 343.638 185.967 343.878 184.227 343.578C182.907 343.398 181.047 342.618 180.028 341.838C179.007 341.058 175.587 337.338 172.287 333.558C169.047 329.778 164.787 324.258 162.807 321.318C160.827 318.378 157.647 312.678 155.727 308.718C153.807 304.758 151.527 299.358 150.627 296.718C149.787 294.078 148.407 289.218 147.627 285.918C146.847 282.618 145.887 277.218 145.467 273.918C145.047 270.198 144.867 264.258 145.107 258.318C145.287 253.038 145.887 246.258 146.427 243.318C146.967 240.378 148.107 235.638 148.887 232.818C149.727 229.998 151.827 224.778 153.567 221.118C155.307 217.458 157.887 212.778 159.327 210.618C160.767 208.458 163.707 204.558 165.867 201.978C168.027 199.338 171.987 195.438 174.627 193.218Z" fill="#F4F7F7"/>
<path d="M304.227 194.118C304.707 192.978 306.027 191.478 307.048 190.818C308.128 190.158 309.628 189.618 310.348 189.618C311.128 189.618 312.387 189.858 313.227 190.218C314.067 190.578 318.688 194.598 323.548 199.278C328.467 203.898 332.908 208.398 333.448 209.298C334.048 210.198 334.527 212.058 334.527 213.438C334.527 214.878 334.107 216.798 333.628 217.818C333.147 218.838 331.827 220.158 330.747 220.818C329.728 221.478 327.808 222.018 326.548 222.018C324.508 222.018 323.607 221.358 314.848 212.958C309.688 208.038 304.948 203.118 304.348 202.038C303.808 200.958 303.327 199.218 303.327 198.138C303.327 197.118 303.747 195.258 304.227 194.118Z" fill="#F4F7F7"/>
<path d="M338.248 229.398C339.028 228.678 340.287 227.838 341.128 227.478C341.967 227.118 343.467 226.998 344.428 227.118C345.387 227.298 346.887 227.898 347.727 228.498C348.568 229.098 349.708 230.538 350.248 231.678C350.848 232.818 351.867 236.298 352.527 239.418C353.188 242.538 354.027 247.818 354.387 251.118C354.807 254.718 354.928 260.898 354.748 266.718C354.508 272.958 353.967 278.418 353.128 282.318C352.467 285.618 350.908 291.258 349.708 294.918C348.508 298.578 346.468 303.798 345.208 306.618C343.888 309.438 341.488 313.998 339.808 316.818C338.068 319.638 334.887 324.378 332.727 327.318C330.507 330.258 327.268 334.278 325.468 336.258C323.668 338.178 320.188 341.418 317.727 343.398C315.268 345.378 310.527 348.738 307.227 350.898C303.927 353.058 297.988 356.418 294.028 358.278C290.068 360.138 284.668 362.358 282.028 363.258C279.388 364.098 274.408 365.478 270.928 366.258C267.448 367.098 261.928 368.058 258.628 368.478C255.328 368.838 250.888 369.018 248.728 368.838C246.568 368.658 243.748 368.178 242.428 367.758C240.928 367.338 238.648 365.718 236.428 363.618C234.088 361.398 230.848 359.178 227.128 357.318C222.568 354.978 220.467 353.418 216.627 349.578C213.927 346.878 210.387 342.618 208.647 340.038C206.908 337.518 205.347 334.938 205.107 334.338C204.868 333.798 206.547 334.998 208.887 337.098C211.167 339.198 214.527 341.898 216.327 343.098C218.127 344.298 221.788 346.278 224.428 347.478C227.068 348.738 230.848 350.178 232.827 350.658C234.808 351.198 238.708 351.918 241.528 352.278C244.408 352.698 249.508 352.818 253.228 352.638C256.888 352.458 262.528 351.738 265.828 351.078C269.128 350.418 275.008 348.798 278.848 347.418C282.747 346.098 287.908 344.058 290.247 342.858C292.648 341.658 296.787 339.318 299.427 337.698C302.067 336.018 306.508 332.778 309.268 330.378C312.028 328.038 315.508 324.738 317.008 323.118C318.508 321.438 321.328 317.958 323.308 315.318C325.288 312.678 328.408 307.278 330.327 303.318C332.247 299.358 334.468 293.958 335.368 291.318C336.208 288.678 337.288 284.778 337.768 282.618C338.248 280.458 338.967 276.018 339.387 272.718C339.807 269.118 339.988 263.478 339.748 258.618C339.568 253.518 338.848 247.518 337.827 242.418C336.988 237.978 336.388 233.538 336.568 232.518C336.748 231.498 337.528 230.118 338.248 229.398Z" fill="#F4F7F7"/>
<path d="M179.787 268.878C180.267 267.738 181.407 266.298 182.427 265.698C183.387 265.098 185.307 264.618 186.627 264.618C188.127 264.618 189.747 265.098 191.067 265.938C192.747 267.078 193.407 268.158 194.727 272.118C195.567 274.758 197.187 278.658 198.267 280.818C199.347 282.978 201.627 286.578 203.367 288.858C205.047 291.138 208.167 294.618 210.327 296.538C212.487 298.458 216.267 301.098 218.728 302.418C221.188 303.678 225.388 305.298 228.028 306.018C231.147 306.798 234.748 307.218 238.228 307.218C241.648 307.218 245.368 306.798 248.428 306.018C251.068 305.358 255.448 303.738 258.147 302.418C260.908 301.098 263.248 300.018 263.428 300.018C263.608 300.018 263.607 300.618 263.487 301.338C263.307 302.118 262.588 306.078 261.868 310.218C261.147 314.358 260.247 318.018 259.887 318.378C259.527 318.798 257.608 319.638 255.628 320.298C253.648 320.958 249.748 321.918 246.928 322.458C244.108 322.998 240.147 323.418 238.048 323.418C236.007 323.418 232.228 323.118 229.647 322.758C227.128 322.398 222.567 321.318 219.627 320.358C216.627 319.338 212.487 317.538 210.327 316.278C208.167 315.018 204.387 312.378 201.927 310.398C199.467 308.418 195.687 304.758 193.527 302.178C191.367 299.658 188.188 295.278 186.447 292.338C184.708 289.458 182.487 284.958 181.467 282.318C180.447 279.678 179.487 276.018 179.247 274.218C179.047 272.018 179.227 270.238 179.787 268.878Z" fill="#F4F7F7"/>
<defs>
<linearGradient id="paint0_linear_63_318" x1="0" y1="0" x2="500" y2="500" gradientUnits="userSpaceOnUse">
<stop stop-color="#00BD85"/>
<stop offset="0.502569" stop-color="#00927A"/>
<stop offset="1" stop-color="#00676D"/>
</linearGradient>
</defs>
</svg>
