<svg width="300" height="300" viewBox="0 0 300 300" fill="none" xmlns="http://www.w3.org/2000/svg">
<path d="M0 300V150V0H300V300H0Z" fill="url(#paint0_linear_56_311)"/>
<path d="M109.8 31.0801C111.3 30.1801 114 29.0401 115.8 28.5601C118.14 27.9001 120.72 27.6601 124.5 27.8401C129.06 28.0801 130.5 28.4401 133.8 30.0601C136.2 31.2601 139.2 33.4801 141.66 35.9401C144.66 38.9401 145.92 40.8001 147 43.5001C147.72 45.4801 148.5 48.6001 148.74 50.4001C148.98 52.2001 148.92 55.8601 148.68 58.5001C148.32 61.8601 147.6 64.5001 146.22 67.4401C144.96 70.2001 143.28 72.4801 141.18 74.4601C139.44 76.0801 136.2 78.3001 133.98 79.3201C130.08 81.1801 123 81.3001 123 81.3001C123 81.3001 115.86 81.1801 112.2 79.3801C109.56 78.1201 107.1 76.2601 104.58 73.5601C102.48 71.4001 100.26 68.5801 99.6601 67.3201C99.0601 66.1201 98.1001 63.4801 97.5601 61.5001C97.0201 59.5201 96.6001 56.2801 96.6001 54.3001C96.6001 52.2601 97.1401 48.9001 97.8601 46.5001C98.5801 44.2201 99.7801 41.2801 100.56 40.0201C101.34 38.8201 103.14 36.6601 104.52 35.2201C105.96 33.8401 108.3 31.9801 109.8 31.0801Z" fill="#F4F7F7"/>
<path d="M190.74 42.0601C191.28 41.2201 192.54 40.0801 193.5 39.4801C194.46 38.8801 196.2 38.4001 197.28 38.4001C198.3 38.4001 200.04 38.8201 201 39.3001C201.96 39.7801 203.46 41.1001 204.3 42.1801C205.14 43.2001 205.98 45.0601 206.16 46.2001C206.4 47.5801 206.1 49.8001 205.2 52.8001C204.48 55.2601 202.5 60.0001 200.88 63.3001C199.2 66.6001 196.56 71.2201 194.94 73.5001C193.32 75.7801 190.32 79.5601 188.28 81.8401C186.18 84.1201 182.34 87.6601 179.7 89.7001C177.06 91.7401 173.28 94.3801 171.3 95.5801C169.32 96.7201 165.96 98.5201 163.8 99.4801C161.64 100.5 157.62 101.88 154.8 102.6C151.98 103.32 148.92 104.1 146.1 104.76L145.8 133.8H164.88C175.32 133.8 185.52 134.1 187.5 134.4C189.48 134.76 192.6 135.72 194.4 136.56C196.2 137.4 199.02 139.08 200.58 140.28C202.2 141.48 204.42 143.7 205.56 145.2C206.7 146.7 208.2 149.34 208.8 151.08C209.46 152.76 210.3 156.18 210.66 158.58C211.14 162.06 211.14 163.8 210.36 167.4C209.64 171 207.48 175.8 199.68 191.4C193.5 203.76 189.12 211.74 187.8 213.12C185.94 215.1 185.34 215.34 182.7 215.4C180.3 215.4 179.22 215.1 177.18 213.6C175.68 212.58 174.18 210.84 173.64 209.58C172.98 208.02 172.8 206.46 173.04 204.6C173.28 202.8 175.14 198.8 178.62 192.6C181.5 187.5 185.76 179.28 188.22 174.3C192.18 166.14 192.6 164.94 192.6 161.7C192.6 159.3 192.22 157.4 191.46 156C190.86 154.86 189.42 153.42 188.34 152.82C186.48 151.92 184.02 151.8 162.3 151.8C144.96 151.8 137.64 151.56 135.9 151.02C134.64 150.66 132.66 149.52 131.64 148.5C130.5 147.42 129.42 145.56 129 144C128.46 142.08 128.34 137.04 128.46 126.78C128.58 118.74 128.64 112.2 128.58 112.2C128.46 112.2 127.26 113.88 125.88 115.92C124.5 118.02 122.88 120.78 122.28 122.1C121.38 124.14 121.2 126.24 121.2 135.9C121.2 145.68 121.32 147.84 122.4 151.2C123.06 153.36 124.62 156.42 125.82 158.04C127.08 159.72 129.24 161.94 130.68 163.02C132.06 164.1 134.34 165.3 135.78 165.72C137.16 166.08 140.04 166.38 142.2 166.38C144.54 166.32 147.42 165.78 149.4 165.06C151.2 164.4 154.08 162.72 155.7 161.4C157.44 159.96 159.6 158.82 160.8 158.64C161.94 158.46 162.54 159.18 162.6 159.3C162.66 159.42 163.56 160.32 164.1 162.3C164.64 164.28 165.78 167.46 168.3 172.92L166.8 174.06C165.96 174.66 162.6 176.52 159.3 178.2C156 179.82 151.56 181.56 149.4 182.1C147.24 182.58 143.46 183 141 183C138.54 183 134.88 182.58 132.9 182.04C130.92 181.5 127.8 180.3 126 179.4C124.2 178.5 121.26 176.52 119.46 175.14C117.66 173.7 115.08 170.88 113.7 168.9C112.26 166.92 110.46 163.92 109.68 162.3C108.84 160.62 107.58 157.56 106.92 155.4C106.26 153.24 105.36 149.52 105.06 147.12C104.7 144.78 104.4 139.62 104.4 135.78C104.4 131.88 104.82 126.42 105.3 123.6C105.78 120.78 106.74 116.46 107.46 114C108.12 111.54 109.62 107.76 110.7 105.6C111.84 103.44 114.18 100.08 115.98 98.1001C117.72 96.1201 120.54 93.6001 122.16 92.5801C123.78 91.5001 126.48 90.1201 128.1 89.4601C129.78 88.8001 135.6 87.4801 141.18 86.4601C146.7 85.4401 153.18 83.9401 155.58 83.1001C157.92 82.2601 161.64 80.5801 163.8 79.3801C166.2 78.0601 169.8 75.1201 173.16 71.7601C176.58 68.3401 179.76 64.3801 181.74 61.2001C183.42 58.3801 185.94 53.2801 187.32 49.8001C188.64 46.3201 190.2 42.8401 190.74 42.0601Z" fill="#F4F7F7"/>
<path d="M72.3001 90.0001C74.9401 87.7801 78.3001 85.1401 79.7401 84.1201C81.2401 83.0401 82.5601 82.2001 82.7401 82.2001C82.9201 82.2001 82.0201 83.2201 80.7601 84.4201C79.4401 85.6801 77.2201 88.3201 75.7201 90.3001C74.2801 92.2801 71.9401 96.1801 70.5001 99.0001C69.0601 101.82 66.9601 106.8 65.8201 110.1C64.6801 113.4 62.8801 119.46 61.8601 123.6C60.9001 127.74 59.5201 134.22 58.8601 138C58.2001 141.78 57.4801 147.48 57.3001 150.6C57.0601 153.72 57.1801 159.84 57.5401 164.1C57.9001 168.36 58.8601 174.66 59.7001 178.02C60.5401 181.44 62.1601 186.84 63.3601 190.02C64.5601 193.26 66.5401 197.76 67.7401 200.1C68.9401 202.38 71.6401 206.88 73.7401 210C75.8401 213.12 79.1401 217.56 81.0001 219.9C82.9201 222.24 85.5001 225.06 86.7001 226.2C87.9001 227.34 89.2801 229.02 89.7601 229.92C90.2401 230.88 90.6001 232.26 90.6001 233.1C90.6001 233.94 90.2401 235.5 89.7601 236.52C89.2201 237.78 88.0201 238.92 86.5801 239.64C84.9601 240.42 83.6401 240.66 81.9001 240.36C80.5801 240.18 78.7201 239.4 77.7001 238.62C76.6801 237.84 73.2601 234.12 69.9601 230.34C66.7201 226.56 62.4601 221.04 60.4801 218.1C58.5001 215.16 55.3201 209.46 53.4001 205.5C51.4801 201.54 49.2001 196.14 48.3001 193.5C47.4601 190.86 46.0801 186 45.3001 182.7C44.5201 179.4 43.5601 174 43.1401 170.7C42.7201 166.98 42.5401 161.04 42.7801 155.1C42.9601 149.82 43.5601 143.04 44.1001 140.1C44.6401 137.16 45.7801 132.42 46.5601 129.6C47.4001 126.78 49.5001 121.56 51.2401 117.9C52.9801 114.24 55.5601 109.56 57.0001 107.4C58.4401 105.24 61.3801 101.34 63.5401 98.7601C65.7001 96.1201 69.6601 92.2201 72.3001 90.0001Z" fill="#F4F7F7"/>
<path d="M201.9 90.9001C202.38 89.7601 203.7 88.2601 204.72 87.6001C205.8 86.9401 207.3 86.4001 208.02 86.4001C208.8 86.4001 210.06 86.6401 210.9 87.0001C211.74 87.3601 216.36 91.3801 221.22 96.0601C226.14 100.68 230.58 105.18 231.12 106.08C231.72 106.98 232.2 108.84 232.2 110.22C232.2 111.66 231.78 113.58 231.3 114.6C230.82 115.62 229.5 116.94 228.42 117.6C227.4 118.26 225.48 118.8 224.22 118.8C222.18 118.8 221.28 118.14 212.52 109.74C207.36 104.82 202.62 99.9001 202.02 98.8201C201.48 97.7401 201 96.0001 201 94.9201C201 93.9001 201.42 92.0401 201.9 90.9001Z" fill="#F4F7F7"/>
<path d="M235.92 126.18C236.7 125.46 237.96 124.62 238.8 124.26C239.64 123.9 241.14 123.78 242.1 123.9C243.06 124.08 244.56 124.68 245.4 125.28C246.24 125.88 247.38 127.32 247.92 128.46C248.52 129.6 249.54 133.08 250.2 136.2C250.86 139.32 251.7 144.6 252.06 147.9C252.48 151.5 252.6 157.68 252.42 163.5C252.18 169.74 251.64 175.2 250.8 179.1C250.14 182.4 248.58 188.04 247.38 191.7C246.18 195.36 244.14 200.58 242.88 203.4C241.56 206.22 239.16 210.78 237.48 213.6C235.74 216.42 232.56 221.16 230.4 224.1C228.18 227.04 224.94 231.06 223.14 233.04C221.34 234.96 217.86 238.2 215.4 240.18C212.94 242.16 208.2 245.52 204.9 247.68C201.6 249.84 195.66 253.2 191.7 255.06C187.74 256.92 182.34 259.14 179.7 260.04C177.06 260.88 172.08 262.26 168.6 263.04C165.12 263.88 159.6 264.84 156.3 265.26C153 265.62 148.56 265.8 146.4 265.62C144.24 265.44 141.42 264.96 140.1 264.54C138.6 264.12 136.32 262.5 134.1 260.4C131.76 258.18 128.52 255.96 124.8 254.1C120.24 251.76 118.14 250.2 114.3 246.36C111.6 243.66 108.06 239.4 106.32 236.82C104.58 234.3 103.02 231.72 102.78 231.12C102.54 230.58 104.22 231.78 106.56 233.88C108.84 235.98 112.2 238.68 114 239.88C115.8 241.08 119.46 243.06 122.1 244.26C124.74 245.52 128.52 246.96 130.5 247.44C132.48 247.98 136.38 248.7 139.2 249.06C142.08 249.48 147.18 249.6 150.9 249.42C154.56 249.24 160.2 248.52 163.5 247.86C166.8 247.2 172.68 245.58 176.52 244.2C180.42 242.88 185.58 240.84 187.92 239.64C190.32 238.44 194.46 236.1 197.1 234.48C199.74 232.8 204.18 229.56 206.94 227.16C209.7 224.82 213.18 221.52 214.68 219.9C216.18 218.22 219 214.74 220.98 212.1C222.96 209.46 226.08 204.06 228 200.1C229.92 196.14 232.14 190.74 233.04 188.1C233.88 185.46 234.96 181.56 235.44 179.4C235.92 177.24 236.64 172.8 237.06 169.5C237.48 165.9 237.66 160.26 237.42 155.4C237.24 150.3 236.52 144.3 235.5 139.2C234.66 134.76 234.06 130.32 234.24 129.3C234.42 128.28 235.2 126.9 235.92 126.18Z" fill="#F4F7F7"/>
<path d="M77.4601 165.66C77.9401 164.52 79.0801 163.08 80.1001 162.48C81.0601 161.88 82.9801 161.4 84.3001 161.4C85.8001 161.4 87.4201 161.88 88.7401 162.72C90.4201 163.86 91.0801 164.94 92.4001 168.9C93.2401 171.54 94.8601 175.44 95.9401 177.6C97.0201 179.76 99.3001 183.36 101.04 185.64C102.72 187.92 105.84 191.4 108 193.32C110.16 195.24 113.94 197.88 116.4 199.2C118.86 200.46 123.06 202.08 125.7 202.8C128.82 203.58 132.42 204 135.9 204C139.32 204 143.04 203.58 146.1 202.8C148.74 202.14 153.12 200.52 155.82 199.2C158.58 197.88 160.92 196.8 161.1 196.8C161.28 196.8 161.28 197.4 161.16 198.12C160.98 198.9 160.26 202.86 159.54 207C158.82 211.14 157.92 214.8 157.56 215.16C157.2 215.58 155.28 216.42 153.3 217.08C151.32 217.74 147.42 218.7 144.6 219.24C141.78 219.78 137.82 220.2 135.72 220.2C133.68 220.2 129.9 219.9 127.32 219.54C124.8 219.18 120.24 218.1 117.3 217.14C114.3 216.12 110.16 214.32 108 213.06C105.84 211.8 102.06 209.16 99.6001 207.18C97.1401 205.2 93.3601 201.54 91.2001 198.96C89.0401 196.44 85.8601 192.06 84.1201 189.12C82.3801 186.24 80.1601 181.74 79.1401 179.1C78.1201 176.46 77.1601 172.8 76.9201 171C76.7201 168.8 76.9001 167.02 77.4601 165.66Z" fill="#F4F7F7"/>
<defs>
<linearGradient id="paint0_linear_56_311" x1="0" y1="0" x2="300" y2="300" gradientUnits="userSpaceOnUse">
<stop stop-color="#00BD85"/>
<stop offset="0.502569" stop-color="#00927A"/>
<stop offset="1" stop-color="#00676D"/>
</linearGradient>
</defs>
</svg>
